<svg xmlns="http://www.w3.org/2000/svg" width="800" height="400" viewBox="0 0 800 400">
  <defs>
    <style>
      text { font-family: 'Inter', 'Helvetica Neue', Arial, sans-serif; }
      .mono { font-family: 'JetBrains Mono', 'Fira Code', 'Courier New', monospace; }
    </style>
  </defs>

  <!-- Background -->
  <rect width="800" height="400" fill="#0A1628"/>

  <!-- Subtle grid dots -->
  <pattern id="dots" x="0" y="0" width="24" height="24" patternUnits="userSpaceOnUse">
    <circle cx="12" cy="12" r="1" fill="#1E88E5" opacity="0.06"/>
  </pattern>
  <rect width="800" height="400" fill="url(#dots)"/>

  <!-- Left sidebar -->
  <rect x="0" y="0" width="180" height="400" fill="#0D1E35"/>
  <rect x="180" y="0" width="1" height="400" fill="#142235"/>

  <!-- Logo -->
  <text x="20" y="38" fill="#1E88E5" font-size="13" font-weight="500" letter-spacing="2" class="mono">FLOWSTOCK</text>
  <rect x="20" y="46" width="140" height="1" fill="#1E88E5" opacity="0.3"/>

  <!-- Nav items -->
  <rect x="0" y="60" width="180" height="32" fill="#1E88E5" opacity="0.12"/>
  <rect x="16" y="70" width="3" height="12" fill="#1E88E5" rx="1"/>
  <text x="28" y="81" fill="#F8FAFC" font-size="11" font-weight="500">Estoque</text>
  <text x="28" y="114" fill="#94A3B8" font-size="11">Custos e Margem</text>
  <text x="28" y="146" fill="#94A3B8" font-size="11">Caixa</text>
  <text x="28" y="178" fill="#94A3B8" font-size="11">Fornecedores</text>
  <text x="28" y="210" fill="#94A3B8" font-size="11">Relatórios</text>
  <text x="28" y="242" fill="#94A3B8" font-size="11">Alertas</text>

  <rect x="20" y="260" width="140" height="1" fill="#142235"/>

  <!-- Alert badge -->
  <rect x="20" y="274" width="140" height="44" fill="#F59E0B" opacity="0.08" rx="4"/>
  <rect x="20" y="274" width="2" height="44" fill="#F59E0B" rx="1"/>
  <text x="30" y="290" fill="#F59E0B" font-size="9" font-weight="500">2 ALERTAS ATIVOS</text>
  <text x="30" y="305" fill="#94A3B8" font-size="9">Arroz 5kg: crítico</text>
  <text x="30" y="317" fill="#94A3B8" font-size="9">Óleo 900ml: baixo</text>

  <!-- Main content area -->
  <rect x="180" y="0" width="620" height="52" fill="#0D1E35"/>
  <rect x="180" y="52" width="620" height="1" fill="#142235"/>
  <text x="204" y="30" fill="#F8FAFC" font-size="14" font-weight="500">Posição de Estoque — Agora</text>
  <text x="204" y="44" fill="#94A3B8" font-size="10">147 produtos · Atualizado em tempo real</text>

  <!-- Quick stats top right -->
  <rect x="580" y="8" width="90" height="34" fill="#0D1E35" rx="4"/>
  <text x="596" y="24" fill="#94A3B8" font-size="8" letter-spacing="1">SALDO CAIXA</text>
  <text x="596" y="38" fill="#22C55E" font-size="12" font-weight="500">R$ 12.840</text>

  <!-- Table header -->
  <rect x="200" y="60" width="580" height="22" fill="#142235" rx="3"/>
  <text x="216" y="75" fill="#94A3B8" font-size="9" letter-spacing="1">PRODUTO</text>
  <text x="380" y="75" fill="#94A3B8" font-size="9" letter-spacing="1">ESTOQUE</text>
  <text x="450" y="75" fill="#94A3B8" font-size="9" letter-spacing="1">CUSTO UNIT.</text>
  <text x="540" y="75" fill="#94A3B8" font-size="9" letter-spacing="1">PREÇO VENDA</text>
  <text x="650" y="75" fill="#94A3B8" font-size="9" letter-spacing="1">MARGEM</text>
  <text x="724" y="75" fill="#94A3B8" font-size="9" letter-spacing="1">STATUS</text>

  <!-- Product rows -->
  <!-- Row 1: Arroz - crítico -->
  <rect x="200" y="86" width="580" height="36" fill="#F59E0B" opacity="0.05" rx="3"/>
  <rect x="200" y="86" width="3" height="36" fill="#EF4444" rx="1"/>
  <rect x="200" y="121" width="580" height="1" fill="#142235"/>
  <text x="216" y="102" fill="#F8FAFC" font-size="11" font-weight="500">Arroz Branco 5kg</text>
  <text x="216" y="115" fill="#94A3B8" font-size="9">Grãos · Cód. 001</text>
  <!-- Stock level bar -->
  <rect x="376" y="98" width="60" height="5" fill="#142235" rx="2"/>
  <rect x="376" y="98" width="8" height="5" fill="#EF4444" rx="2"/>
  <text x="444" y="104" fill="#EF4444" font-size="10" font-weight="500">3 un</text>
  <text x="456" y="104" fill="#94A3B8" font-size="9">crítico</text>
  <text x="456" y="104" fill="#94A3B8" font-size="9"> </text>
  <text x="456" y="102" fill="#94A3B8" font-size="8">mín: 20</text>
  <text x="540" y="104" fill="#F8FAFC" font-size="11">R$ 18,50</text>
  <text x="650" y="104" fill="#F8FAFC" font-size="11">R$ 27,90</text>
  <rect x="724" y="92" width="50" height="18" fill="#EF4444" opacity="0.15" rx="9"/>
  <text x="735" y="105" fill="#EF4444" font-size="8" font-weight="500">CRÍTICO</text>
  <!-- Margin pill -->
  <rect x="816" y="92" width="38" height="18" fill="#22C55E" opacity="0.15" rx="3"/>
  <text x="820" y="104" fill="#22C55E" font-size="9">+33%</text>

  <!-- Row 2: Feijão - ok -->
  <rect x="200" y="126" width="580" height="36" fill="#0D1E35" rx="3"/>
  <rect x="200" y="126" width="3" height="36" fill="#22C55E" rx="1"/>
  <rect x="200" y="161" width="580" height="1" fill="#142235"/>
  <text x="216" y="142" fill="#F8FAFC" font-size="11" font-weight="500">Feijão Carioca 1kg</text>
  <text x="216" y="155" fill="#94A3B8" font-size="9">Grãos · Cód. 002</text>
  <rect x="376" y="138" width="60" height="5" fill="#142235" rx="2"/>
  <rect x="376" y="138" width="48" height="5" fill="#22C55E" rx="2"/>
  <text x="444" y="144" fill="#F8FAFC" font-size="11">48 un</text>
  <text x="540" y="144" fill="#F8FAFC" font-size="11">R$ 6,20</text>
  <text x="650" y="144" fill="#F8FAFC" font-size="11">R$ 9,80</text>
  <rect x="724" y="132" width="46" height="18" fill="#22C55E" opacity="0.15" rx="9"/>
  <text x="730" y="145" fill="#22C55E" font-size="8" font-weight="500">NORMAL</text>

  <!-- Row 3: Óleo - baixo -->
  <rect x="200" y="166" width="580" height="36" fill="#0A1628" rx="3"/>
  <rect x="200" y="166" width="3" height="36" fill="#F59E0B" rx="1"/>
  <rect x="200" y="201" width="580" height="1" fill="#142235"/>
  <text x="216" y="182" fill="#F8FAFC" font-size="11" font-weight="500">Óleo de Soja 900ml</text>
  <text x="216" y="195" fill="#94A3B8" font-size="9">Mercearia · Cód. 015</text>
  <rect x="376" y="178" width="60" height="5" fill="#142235" rx="2"/>
  <rect x="376" y="178" width="12" height="5" fill="#F59E0B" rx="2"/>
  <text x="444" y="184" fill="#F59E0B" font-size="11">7 un</text>
  <text x="540" y="184" fill="#F8FAFC" font-size="11">R$ 8,40</text>
  <text x="650" y="184" fill="#F8FAFC" font-size="11">R$ 12,90</text>
  <rect x="724" y="172" width="46" height="18" fill="#F59E0B" opacity="0.15" rx="9"/>
  <text x="733" y="185" fill="#F59E0B" font-size="8" font-weight="500">BAIXO</text>

  <!-- Row 4: Açúcar - ok -->
  <rect x="200" y="206" width="580" height="36" fill="#0D1E35" rx="3"/>
  <rect x="200" y="206" width="3" height="36" fill="#22C55E" rx="1"/>
  <rect x="200" y="241" width="580" height="1" fill="#142235"/>
  <text x="216" y="222" fill="#F8FAFC" font-size="11" font-weight="500">Açúcar Cristal 5kg</text>
  <text x="216" y="235" fill="#94A3B8" font-size="9">Mercearia · Cód. 008</text>
  <rect x="376" y="218" width="60" height="5" fill="#142235" rx="2"/>
  <rect x="376" y="218" width="54" height="5" fill="#22C55E" rx="2"/>
  <text x="444" y="224" fill="#F8FAFC" font-size="11">62 un</text>
  <text x="540" y="224" fill="#F8FAFC" font-size="11">R$ 12,80</text>
  <text x="650" y="224" fill="#F8FAFC" font-size="11">R$ 19,90</text>
  <rect x="724" y="212" width="46" height="18" fill="#22C55E" opacity="0.15" rx="9"/>
  <text x="730" y="225" fill="#22C55E" font-size="8" font-weight="500">NORMAL</text>

  <!-- Row 5: Café -->
  <rect x="200" y="246" width="580" height="36" fill="#0A1628" rx="3"/>
  <rect x="200" y="246" width="3" height="36" fill="#22C55E" rx="1"/>
  <text x="216" y="262" fill="#F8FAFC" font-size="11" font-weight="500">Café Torrado 500g</text>
  <text x="216" y="275" fill="#94A3B8" font-size="9">Bebidas · Cód. 022</text>
  <rect x="376" y="258" width="60" height="5" fill="#142235" rx="2"/>
  <rect x="376" y="258" width="40" height="5" fill="#22C55E" rx="2"/>
  <text x="444" y="264" fill="#F8FAFC" font-size="11">24 un</text>
  <text x="540" y="264" fill="#F8FAFC" font-size="11">R$ 14,00</text>
  <text x="650" y="264" fill="#F8FAFC" font-size="11">R$ 22,50</text>
  <rect x="724" y="252" width="46" height="18" fill="#22C55E" opacity="0.15" rx="9"/>
  <text x="730" y="265" fill="#22C55E" font-size="8" font-weight="500">NORMAL</text>

  <!-- Margin chart area -->
  <rect x="200" y="296" width="580" height="1" fill="#142235"/>

  <!-- Summary cards -->
  <rect x="200" y="304" width="136" height="56" fill="#0D1E35" rx="4"/>
  <rect x="200" y="304" width="2" height="56" fill="#1E88E5" rx="1"/>
  <text x="216" y="322" fill="#94A3B8" font-size="9" letter-spacing="1">MARGEM MÉDIA</text>
  <text x="216" y="344" fill="#F8FAFC" font-size="22" font-weight="300">34%</text>
  <text x="216" y="356" fill="#22C55E" font-size="9">+2pp vs mês passado</text>

  <rect x="348" y="304" width="136" height="56" fill="#0D1E35" rx="4"/>
  <rect x="348" y="304" width="2" height="56" fill="#4FC3F7" rx="1"/>
  <text x="364" y="322" fill="#94A3B8" font-size="9" letter-spacing="1">PRODUTOS EM ALERTA</text>
  <text x="364" y="344" fill="#F8FAFC" font-size="22" font-weight="300">2</text>
  <text x="364" y="356" fill="#F59E0B" font-size="9">Pedido automático gerado</text>

  <rect x="496" y="304" width="136" height="56" fill="#0D1E35" rx="4"/>
  <rect x="496" y="304" width="2" height="56" fill="#22C55E" rx="1"/>
  <text x="512" y="322" fill="#94A3B8" font-size="9" letter-spacing="1">ENTRADAS MÊS</text>
  <text x="512" y="344" fill="#F8FAFC" font-size="22" font-weight="300">R$ 68k</text>
  <text x="512" y="356" fill="#94A3B8" font-size="9">147 produtos rastreados</text>

  <rect x="644" y="304" width="136" height="56" fill="#0D1E35" rx="4"/>
  <rect x="644" y="304" width="2" height="56" fill="#F59E0B" rx="1"/>
  <text x="660" y="322" fill="#94A3B8" font-size="9" letter-spacing="1">LUCRO LÍQUIDO</text>
  <text x="660" y="344" fill="#F8FAFC" font-size="22" font-weight="300">R$ 23k</text>
  <text x="660" y="356" fill="#22C55E" font-size="9">Calculado em tempo real</text>

  <!-- Bottom bar -->
  <rect x="0" y="360" width="800" height="40" fill="#0D1E35"/>
  <rect x="0" y="360" width="800" height="1" fill="#142235"/>
  <text x="200" y="384" fill="#94A3B8" font-size="9" letter-spacing="1">FLOWSTOCK · CONTROLE DE ESTOQUE E MARGEM</text>
  <text x="700" y="384" fill="#1E88E5" font-size="9" class="mono">riverflowdev.com</text>
</svg>
