<svg width="248" height="50" viewBox="0 0 248 50" fill="none" xmlns="http://www.w3.org/2000/svg" role="img" aria-label="RiverFlow">
  <defs>
    <linearGradient id="rf-fg" x1="138" y1="0" x2="195" y2="0" gradientUnits="userSpaceOnUse">
      <stop offset="0%" stop-color="#1565C0"/>
      <stop offset="100%" stop-color="#64B5F6"/>
    </linearGradient>
  </defs>
  <path d="M24 3 C17 3 13 7 13 13 L13 19 C13 23 9 24.5 6 25.5 C9 26.5 13 28 13 32 L13 39 C13 44.5 17 47 24 47" stroke="#4FC3F7" stroke-width="2.5" stroke-linecap="round" stroke-linejoin="round"/>
  <path d="M52 3 C59 3 63 7 63 13 L63 19 C63 23 67 24.5 70 25.5 C67 26.5 63 28 63 32 L63 39 C63 44.5 59 47 52 47" stroke="#4FC3F7" stroke-width="2.5" stroke-linecap="round" stroke-linejoin="round"/>
  <path d="M19 25.5 C23 13.5 33 13.5 38 25.5 C43 37.5 53 37.5 57 25.5" stroke="#4FC3F7" stroke-width="2.8" stroke-linecap="round"/>
  <path d="M19 28 C23 16 33 16 38 28 C43 40 53 40 57 28" stroke="#1565C0" stroke-width="1.7" stroke-linecap="round" opacity="0.55"/>
  <text x="83" y="33" font-family="Inter,-apple-system,BlinkMacSystemFont,'Segoe UI',Roboto,sans-serif" font-weight="700" font-size="23">
    <tspan fill="#FFFFFF">River</tspan><tspan fill="url(#rf-fg)">Flow</tspan>
  </text>
</svg>
